<svg xmlns="http://www.w3.org/2000/svg" version="1.1" xmlns:xlink="http://www.w3.org/1999/xlink" xmlns:svgjs="http://svgjs.dev/svgjs" width="1000" height="1000" viewBox="0 0 1000 1000"><rect width="1000" height="1000" fill="#000000"></rect><g transform="matrix(0.7,0,0,0.7,150,218.95000000000005)"><svg viewBox="0 0 448 360" data-background-color="#0a1627" preserveAspectRatio="xMidYMid meet" height="803" width="1000" xmlns="http://www.w3.org/2000/svg" xmlns:xlink="http://www.w3.org/1999/xlink"><defs></defs><g id="tight-bounds" transform="matrix(1,0,0,1,0,0)"><svg viewBox="0 0 448 360" height="360" width="448"><g><svg></svg></g><g><svg viewBox="0 0 448 360" height="360" width="448"><g><path d="M193.855 44.683c1.378 0 2.494 1.116 2.495 2.494 0 1.378-1.116 2.494-2.495 2.495h-23.846l-17.167 17.167c-0.973 0.973-2.551 0.973-3.53 0-0.973-0.973-0.973-2.551 0-3.529l13.644-13.645h-40.378c-11.518 0-19.151 2.688-23.815 8.113-4.739 5.519-6.66 14.056-6.66 25.63 0 0.069 0 0.137-0.006 0.206l0.212 36.692 14.692-14.692c0.973-0.973 2.551-0.973 3.53 0 0.973 0.973 0.973 2.551 0 3.53l-18.178 18.178c0.206 35.832 0.193 71.358-0.013 107.19 25.486 25.2 50.617 50.312 75.811 75.791h25.38c1.378 0 2.494 1.116 2.495 2.495 0 1.378-1.116 2.494-2.495 2.494h-20.448l25.942 26.241 0.006-0.006c8.188 8.188 15.577 12.859 22.824 13.413 7.146 0.543 14.442-2.956 22.586-11.093l28.555-28.555h-20.722c-1.378 0-2.494-1.116-2.495-2.494 0-1.378 1.116-2.494 2.495-2.495h25.711l16.625-16.625c0.973-0.973 2.551-0.973 3.529 0 0.973 0.973 0.973 2.551 0 3.53l-13.101 13.102h40.377c11.518 0 19.151-2.688 23.815-8.113 4.739-5.519 6.66-14.056 6.66-25.63h0.013l-0.212-36.898-16.014 16.014c-0.973 0.973-2.551 0.973-3.53 0-0.973-0.973-0.973-2.551 0-3.53l19.5-19.5c-0.206-35.832-0.193-71.358 0.013-107.19-25.486-25.2-50.617-50.312-75.811-75.791h-26.147c-1.378 0-2.494-1.116-2.495-2.495 0-1.378 1.116-2.494 2.495-2.494h21.215l-25.824-26.123c-0.044-0.037-0.081-0.075-0.124-0.112-8.188-8.188-15.577-12.859-22.824-13.413-7.146-0.543-14.442 2.956-22.586 11.093l-28.555 28.555h18.858zM122.578 44.683h45.367l32.078-32.078c9.248-9.248 17.81-13.195 26.484-12.534 8.568 0.649 16.956 5.824 25.985 14.854 0.05 0.05 0.094 0.094 0.137 0.143l29.278 29.615h43.508c13.071 0 21.919 3.268 27.594 9.871 5.6 6.517 7.864 16.101 7.864 28.867 0 0.081-0.006 0.156-0.012 0.23l-0.225 39.742 28.43 28.112 0.006-0.006c9.03 9.03 14.206 17.411 14.854 25.985 0.661 8.674-3.293 17.236-12.534 26.484l-30.768 30.768 0.237 41.843h0.012c0 12.765-2.27 22.35-7.864 28.867-5.675 6.604-14.524 9.872-27.594 9.871h-45.366l-32.078 32.078c-9.248 9.248-17.81 13.195-26.484 12.534-8.568-0.649-16.956-5.824-25.985-14.854l0.006-0.006-29.421-29.758h-43.509c-13.071 0-21.919-3.268-27.594-9.872-5.6-6.517-7.864-16.101-7.863-28.866h0.012l0.231-39.972-28.293-27.969c-0.05-0.044-0.1-0.087-0.143-0.137-9.03-9.03-14.206-17.411-14.854-25.985-0.661-8.674 3.293-17.236 12.534-26.484l30.768-30.768-0.237-41.607c-0.006-0.075-0.012-0.156-0.012-0.23 0-12.765 2.27-22.35 7.864-28.867 5.675-6.604 14.524-9.872 27.594-9.871zM87.682 179.997l-0.274-47.724-27.276 27.276c-8.138 8.138-11.636 15.44-11.094 22.587 0.549 7.246 5.226 14.642 13.413 22.823 0.037 0.037 0.081 0.081 0.113 0.125l24.837 24.551 0.281-49.644zM92.303 241.483l-0.2 35.09h0.013c0 11.58 1.921 20.117 6.66 25.63 4.664 5.432 12.297 8.113 23.815 8.113h38.576l-33.55-33.936-35.308-34.903zM325.415 49.672h-38.575l33.549 33.936 35.308 34.902 0.2-34.884c-0.006-0.069-0.006-0.137-0.007-0.205 0-11.58-1.921-20.117-6.66-25.63-4.664-5.432-12.297-8.113-23.815-8.113zM360.599 130.352l-0.281 49.645 0.274 47.724 27.276-27.276c8.138-8.138 11.636-15.44 11.094-22.587-0.549-7.252-5.226-14.642-13.413-22.824l0.006-0.006-24.956-24.669z" fill="#fe0039" data-fill-palette-color="tertiary"></path></g><g transform="matrix(1,0,0,1,127.37705623463752,90)"><svg viewBox="0 0 193.24588753072496 180" height="180" width="193.24588753072496"><g><svg viewBox="0 0 224.00000000000003 208.6460959930615" height="180" width="193.24588753072496"><g transform="matrix(1,0,0,1,0,146.65863539183817)"><svg viewBox="0 0 224.00000000000003 61.98746060122331" height="61.98746060122331" width="224.00000000000003"><g><svg viewBox="0 0 224.00000000000003 61.98746060122331" height="61.98746060122331" width="224.00000000000003"><g><svg viewBox="0 0 224.00000000000003 37.61194029850746" height="37.61194029850746" width="224.00000000000003"><g transform="matrix(1,0,0,1,0,0)"><svg width="224.00000000000003" viewBox="4.699999809265137 -36 213.24000549316406 36" height="37.61194029850746" data-palette-color="#fe0039"><g class="undefined-text-0" data-fill-palette-color="primary" id="text-0"><path d="M23.85-36L33.6-36 32.75-8.75 33.9-8.75 42.6-36 52.4-36 40.05 0 25.05 0 26.4-23.05 19.7 0 4.7 0 5.05-36 14.85-36 13.95-8.75 15.1-8.75 23.85-36ZM77.45-7.8L76.05 0 50.95 0 57.3-36 82.4-36 81-28.2 64.9-28.2 63.75-21.45 77.05-21.45 75.65-13.65 62.35-13.65 61.35-7.8 77.45-7.8ZM88.14-36L102.64-36Q108.34-36 110.75-33.5L110.75-33.5Q112.55-31.6 112.55-28.7L112.55-28.7Q112.55-27.7 112.34-26.6L112.34-26.6 111.89-24.2Q111.34-21.35 109.77-19.75 108.19-18.15 107-18.15L107-18.15 106.94-17.75Q108.34-17.75 109.8-16.2 111.25-14.65 111.25-12.55L111.25-12.55Q111.25-11.7 111.05-10.75L111.05-10.75 110.75-9.2Q109.94-4.9 106.92-2.45 103.89 0 98.5 0L98.5 0 81.8 0 88.14-36ZM98.14-14.7L98.14-14.7 93.39-14.7 92.19-7.8 96.94-7.8Q97.05-7.8 97.14-7.8L97.14-7.8Q99.44-7.8 100.8-8.88 102.14-9.95 102.14-11.5L102.14-11.5Q102.14-14.7 98.14-14.7ZM99.5-28.2L99.5-28.2 95.75-28.2 94.44-20.75 98.14-20.75Q102.94-20.75 102.94-24.95L102.94-24.95Q102.94-26.4 102.07-27.3 101.19-28.2 99.5-28.2Z" fill="#ffffff" data-fill-palette-color="primary"></path><path d="M137.7-7.8L136.3 0 113.5 0 119.85-36 128.85-36 123.9-7.8 137.7-7.8ZM146.65-36L155.65-36 149.35 0 140.3 0 146.65-36ZM182.39-21L181.05-13.2 167.75-13.2 165.45 0 156.4 0 162.75-36 187.85-36 186.45-28.2 170.35-28.2 169.1-21 182.39-21ZM212.99-7.8L211.59 0 186.49 0 192.84-36 217.94-36 216.54-28.2 200.44-28.2 199.29-21.45 212.59-21.45 211.19-13.65 197.89-13.65 196.89-7.8 212.99-7.8Z" fill="#ffffff" data-fill-palette-color="secondary"></path></g></svg></g></svg></g><g transform="matrix(1,0,0,1,42.784000000000006,46.49121671641791)"><svg viewBox="0 0 138.43200000000002 15.496243884805402" height="15.496243884805402" width="138.43200000000002"><g transform="matrix(1,0,0,1,0,0)"><svg width="138.43200000000002" viewBox="1.4500000476837158 -40.849998474121094 414.91998291015625 46.44999694824219" height="15.496243884805402" data-palette-color="#c1c1c1"><path d="M7.6 5.6L1.45 2.75 22.45-40.85 28.55-38 7.6 5.6ZM37.6 5.6L31.45 2.75 52.45-40.85 58.55-38 37.6 5.6ZM71.4-37.9L71.4-23.9Q74.75-27.45 79.2-27.45L79.2-27.45Q82.7-27.45 84.59-25.38 86.5-23.3 86.5-19.5L86.5-19.5 86.5 0 78.59 0 78.59-17.3Q78.59-19.7 78.05-20.65 77.5-21.6 76.05-21.6L76.05-21.6Q74.84-21.6 73.72-20.78 72.59-19.95 71.4-18.35L71.4-18.35 71.4 0 63.5 0 63.5-37.1 71.4-37.9ZM115.84-7.65Q115.84-6.2 116.24-5.5 116.64-4.8 117.59-4.45L117.59-4.45 115.94 0.75Q113.54 0.5 111.94-0.33 110.34-1.15 109.44-2.75L109.44-2.75Q107.94-1 105.64-0.08 103.34 0.85 100.74 0.85L100.74 0.85Q96.64 0.85 94.19-1.48 91.74-3.8 91.74-7.5L91.74-7.5Q91.74-11.8 95.14-14.18 98.54-16.55 104.69-16.55L104.69-16.55 108.24-16.55 108.24-17.5Q108.24-21.6 102.99-21.6L102.99-21.6Q101.64-21.6 99.62-21.23 97.59-20.85 95.69-20.2L95.69-20.2 93.89-25.45Q96.44-26.4 99.22-26.93 101.99-27.45 104.24-27.45L104.24-27.45Q115.84-27.45 115.84-18.05L115.84-18.05 115.84-7.65ZM103.44-4.8Q104.79-4.8 106.17-5.58 107.54-6.35 108.24-7.7L108.24-7.7 108.24-12.05 106.29-12.05Q99.89-12.05 99.89-8.05L99.89-8.05Q99.89-6.5 100.82-5.65 101.74-4.8 103.44-4.8L103.44-4.8ZM137.59-5.4Q139.09-5.4 140.49-5.98 141.89-6.55 143.49-7.65L143.49-7.65 146.99-2.65Q145.09-1.05 142.59-0.1 140.09 0.85 137.14 0.85L137.14 0.85Q132.89 0.85 129.81-0.9 126.74-2.65 125.09-5.8 123.44-8.95 123.44-13.1L123.44-13.1Q123.44-17.25 125.14-20.5 126.84-23.75 129.97-25.6 133.09-27.45 137.29-27.45L137.29-27.45Q140.24-27.45 142.59-26.63 144.94-25.8 146.99-24.1L146.99-24.1 143.59-19.35Q140.69-21.35 137.64-21.35L137.64-21.35Q131.69-21.35 131.69-13.1L131.69-13.1Q131.69-8.95 133.24-7.18 134.79-5.4 137.59-5.4L137.59-5.4ZM160.34-10.95Q161.09-4.9 166.74-4.9L166.74-4.9Q170.14-4.9 173.54-7.1L173.54-7.1 176.69-2.8Q174.74-1.1 172.04-0.13 169.34 0.85 166.09 0.85L166.09 0.85Q161.64 0.85 158.54-0.93 155.44-2.7 153.86-5.88 152.29-9.05 152.29-13.25L152.29-13.25Q152.29-17.25 153.81-20.48 155.34-23.7 158.26-25.58 161.19-27.45 165.24-27.45L165.24-27.45Q169.04-27.45 171.84-25.83 174.64-24.2 176.16-21.13 177.69-18.05 177.69-13.8L177.69-13.8Q177.69-12.15 177.54-10.95L177.54-10.95 160.34-10.95ZM165.24-22.15Q163.09-22.15 161.79-20.58 160.49-19 160.24-15.75L160.24-15.75 169.99-15.75Q169.89-22.15 165.24-22.15L165.24-22.15ZM197.34-37.1L197.34-8.35Q197.34-5.4 200.74-5.4L200.74-5.4Q202.59-5.4 204.54-6.2L204.54-6.2 206.39-0.9Q203.19 0.85 198.74 0.85L198.74 0.85Q194.09 0.85 191.76-1.83 189.44-4.5 189.44-9.35L189.44-9.35 189.44-31.7 181.64-31.7 181.64-37.1 197.34-37.1ZM235.83-7.65Q235.83-6.2 236.23-5.5 236.63-4.8 237.58-4.45L237.58-4.45 235.93 0.75Q233.53 0.5 231.93-0.33 230.33-1.15 229.43-2.75L229.43-2.75Q227.93-1 225.63-0.08 223.33 0.85 220.73 0.85L220.73 0.85Q216.63 0.85 214.18-1.48 211.73-3.8 211.73-7.5L211.73-7.5Q211.73-11.8 215.13-14.18 218.53-16.55 224.68-16.55L224.68-16.55 228.23-16.55 228.23-17.5Q228.23-21.6 222.98-21.6L222.98-21.6Q221.63-21.6 219.61-21.23 217.58-20.85 215.68-20.2L215.68-20.2 213.88-25.45Q216.43-26.4 219.21-26.93 221.98-27.45 224.23-27.45L224.23-27.45Q235.83-27.45 235.83-18.05L235.83-18.05 235.83-7.65ZM223.43-4.8Q224.78-4.8 226.16-5.58 227.53-6.35 228.23-7.7L228.23-7.7 228.23-12.05 226.28-12.05Q219.88-12.05 219.88-8.05L219.88-8.05Q219.88-6.5 220.81-5.65 221.73-4.8 223.43-4.8L223.43-4.8ZM290.38-37.95Q295.48-37.95 299.48-36.25L299.48-36.25 297.28-31.1Q294.73-32.1 291.63-32.1L291.63-32.1Q289.28-32.1 288.25-31.25 287.23-30.4 287.23-28.45L287.23-28.45 287.23-24.9 295.88-24.9 294.98-19.4 287.23-19.4 287.23 0 279.38 0 279.38-19.4 273.78-19.4 273.78-24.9 279.38-24.9 279.38-28.7Q279.38-32.8 282.25-35.38 285.13-37.95 290.38-37.95L290.38-37.95ZM325.83-7.65Q325.83-6.2 326.23-5.5 326.63-4.8 327.58-4.45L327.58-4.45 325.93 0.75Q323.53 0.5 321.93-0.33 320.33-1.15 319.43-2.75L319.43-2.75Q317.93-1 315.63-0.08 313.33 0.85 310.73 0.85L310.73 0.85Q306.63 0.85 304.18-1.48 301.73-3.8 301.73-7.5L301.73-7.5Q301.73-11.8 305.13-14.18 308.53-16.55 314.68-16.55L314.68-16.55 318.23-16.55 318.23-17.5Q318.23-21.6 312.98-21.6L312.98-21.6Q311.63-21.6 309.6-21.23 307.58-20.85 305.68-20.2L305.68-20.2 303.88-25.45Q306.43-26.4 309.2-26.93 311.98-27.45 314.23-27.45L314.23-27.45Q325.83-27.45 325.83-18.05L325.83-18.05 325.83-7.65ZM313.43-4.8Q314.78-4.8 316.15-5.58 317.53-6.35 318.23-7.7L318.23-7.7 318.23-12.05 316.28-12.05Q309.88-12.05 309.88-8.05L309.88-8.05Q309.88-6.5 310.8-5.65 311.73-4.8 313.43-4.8L313.43-4.8ZM347.57-5.4Q349.07-5.4 350.47-5.98 351.87-6.55 353.47-7.65L353.47-7.65 356.97-2.65Q355.07-1.05 352.57-0.1 350.07 0.85 347.12 0.85L347.12 0.85Q342.87 0.85 339.8-0.9 336.72-2.65 335.07-5.8 333.42-8.95 333.42-13.1L333.42-13.1Q333.42-17.25 335.12-20.5 336.82-23.75 339.95-25.6 343.07-27.45 347.27-27.45L347.27-27.45Q350.22-27.45 352.57-26.63 354.92-25.8 356.97-24.1L356.97-24.1 353.57-19.35Q350.67-21.35 347.62-21.35L347.62-21.35Q341.67-21.35 341.67-13.1L341.67-13.1Q341.67-8.95 343.22-7.18 344.77-5.4 347.57-5.4L347.57-5.4ZM374.92-40.45Q376.97-40.45 378.27-39.18 379.57-37.9 379.57-36L379.57-36Q379.57-34.05 378.27-32.8 376.97-31.55 374.92-31.55L374.92-31.55Q372.87-31.55 371.55-32.83 370.22-34.1 370.22-36L370.22-36Q370.22-37.9 371.55-39.18 372.87-40.45 374.92-40.45L374.92-40.45ZM379.67-26.55L379.67-5.4 386.47-5.4 386.47 0 364.27 0 364.27-5.4 371.77-5.4 371.77-21.15 364.52-21.15 364.52-26.55 379.67-26.55ZM407.32-37.1L407.32-8.35Q407.32-5.4 410.72-5.4L410.72-5.4Q412.57-5.4 414.52-6.2L414.52-6.2 416.37-0.9Q413.17 0.85 408.72 0.85L408.72 0.85Q404.07 0.85 401.74-1.83 399.42-4.5 399.42-9.35L399.42-9.35 399.42-31.7 391.62-31.7 391.62-37.1 407.32-37.1Z" opacity="1" transform="matrix(1,0,0,1,0,0)" fill="#ffffff" class="undefined-text-1" data-fill-palette-color="secondary" id="text-1"></path></svg></g></svg></g></svg></g></svg></g><g transform="matrix(1,0,0,1,47.54995872199137,0)"><svg viewBox="0 0 128.90008255601728 128.90008255601728" height="128.90008255601728" width="128.90008255601728"><g><svg></svg></g><g id="icon-0"><svg viewBox="0 0 128.90008255601728 128.90008255601728" height="128.90008255601728" width="128.90008255601728"><g><path d="M0 64.45c0-35.595 28.855-64.45 64.45-64.45 35.595 0 64.45 28.855 64.45 64.45 0 35.595-28.855 64.45-64.45 64.45-35.595 0-64.45-28.855-64.45-64.45zM64.45 125.508c33.721 0 61.058-27.337 61.058-61.058 0-33.721-27.337-61.058-61.058-61.058-33.721 0-61.058 27.337-61.058 61.058 0 33.721 27.337 61.058 61.058 61.058z" data-fill-palette-color="accent" fill="#ffffff" stroke="transparent"></path><ellipse rx="63.80554086522855" ry="63.80554086522855" cx="64.45004127800864" cy="64.45004127800864" fill="#ffffff" stroke="transparent" stroke-width="0" fill-opacity="1" data-fill-palette-color="accent"></ellipse></g><g transform="matrix(1,0,0,1,27.012980495742482,27.012186001939398)"><svg viewBox="0 0 74.87412156453232 74.87571055213849" height="74.87571055213849" width="74.87412156453232"><g><svg xmlns="http://www.w3.org/2000/svg" viewBox="5 4.892082214355469 90.23500061035156 90.2369155883789" xml:space="preserve" x="0" y="0" height="74.87571055213849" width="74.87412156453232" class="icon-x-0" data-fill-palette-color="quaternary" id="x-0"><path d="M59.114 5.797l-0.062-0.071-0.057 0.049a45.187 45.187 0 0 0-17.931 0.031l-0.091-0.081-0.109 0.125C20.411 10.132 5 28.304 5 50.012c0 3.238 0.351 6.396 1.002 9.443l-0.005 0.005 0.008 0.008c4.358 20.353 22.478 35.661 44.112 35.661 24.878 0 45.118-20.239 45.118-45.117 0-21.798-15.539-40.033-36.121-44.215z m33.333 52.391c-1.236 1.058-8.021 6.663-17.964 11.287 2.126-6.416 2.858-12.649 2.722-18.464H93.21a43.153 43.153 0 0 1-0.763 7.177zM72.502 34.714c1.487 4.88 2.377 9.647 2.684 14.298H51.117V24.91c4.515 0.329 9.14 1.22 13.869 2.676a72.14 72.14 0 0 1 5.752 2.047 72.226 72.226 0 0 1 1.764 5.081z m-6.862-9.019c-4.317-1.333-9.223-2.383-14.522-2.726V6.919a43.08 43.08 0 0 1 6.929 0.718c1.675 2.042 7.292 9.279 11.652 19.446a74.241 74.241 0 0 0-4.059-1.388z m-16.523-2.818c-5.681-0.168-11.771 0.513-18.042 2.521 4.203-9.207 9.252-15.739 10.87-17.718a43.093 43.093 0 0 1 7.172-0.762v15.959z m0 1.925v24.209H24.841c0.305-4.631 1.189-9.377 2.665-14.235a73.762 73.762 0 0 1 2.537-7.02c6.103-2.202 12.467-3.193 19.074-2.954zM25.612 34.13c-1.345 4.414-2.394 9.445-2.709 14.881H7.025c0.051-2.241 0.274-4.44 0.656-6.585 6.23-6.174 12.838-10.734 19.797-13.672a76.751 76.751 0 0 0-1.866 5.376z m-2.79 16.882c-0.151 6.403 0.755 13.316 3.412 20.419-6.446-2.918-12.586-7.243-18.398-12.971a43.174 43.174 0 0 1-0.811-7.448h15.797z m1.925 0h24.371v24.922c-7.091 0.256-13.902-0.9-20.413-3.456-2.861-6.827-4.18-13.992-3.958-21.466z m22.701 26.875c0.562 0 1.115-0.021 1.669-0.037v15.254a43.095 43.095 0 0 1-6.739-0.684c-5.452-5.539-9.639-11.378-12.569-17.495 6.105 2.124 12.054 2.962 17.639 2.962z m3.669-0.132c5.297-0.344 10.208-1.381 14.522-2.714a75.06 75.06 0 0 0 5.394-1.9c-2.952 6.785-7.426 13.236-13.428 19.324a43.191 43.191 0 0 1-6.488 0.639V77.755z m13.869-4.606c-4.729 1.456-9.354 2.347-13.869 2.676V51.012h24.164c0.2 6.772-0.865 13.29-3.195 19.532a72.793 72.793 0 0 1-7.1 2.605z m12.139-24.137c-0.316-5.436-1.365-10.467-2.71-14.881a73.569 73.569 0 0 0-1.136-3.418c11.127 4.953 18.607 11.345 19.319 11.965 0.355 2.065 0.562 4.18 0.611 6.334H77.125z m14.82-9.461c-3.275-2.572-10.28-7.564-19.649-11.446-3.67-9.208-8.449-16.212-11.151-19.776 15.116 4.002 26.999 16.025 30.8 31.222zM38.825 8.404c-2.531 3.346-6.821 9.641-10.345 17.893-6.6 2.492-13.363 6.522-20.031 12.64C12.39 24.121 24.04 12.422 38.825 8.404zM8.726 62.062c6.167 5.603 12.413 9.423 18.532 11.903 2.523 5.849 6.272 11.798 11.627 17.671-14.487-3.914-25.968-15.202-30.159-29.574z m52.345 29.653c5.963-6.521 9.939-13.137 12.457-19.606 8.527-3.7 14.958-8.231 18.177-10.734-4.047 14.791-15.783 26.437-30.634 30.34z" fill="#0a1627" data-fill-palette-color="quaternary"></path></svg></g></svg></g></svg></g></svg></g><g></g></svg></g></svg></g></svg></g></svg><rect width="448" height="360" fill="none" stroke="none" visibility="hidden"></rect></g></svg></g></svg>